<svg width="128" height="128" viewBox="0 0 128 128" fill="none" xmlns="http://www.w3.org/2000/svg">
<g clip-path="url(#clip0_31_313)">
<path d="M93.57 26C92.3757 19.0225 88.7526 12.6921 83.3412 8.12821C77.9299 3.56436 71.079 1.0611 64 1.0611C56.921 1.0611 50.0701 3.56436 44.6588 8.12821C39.2474 12.6921 35.6243 19.0225 34.43 26C34.056 28.3134 33.9119 30.6582 34 33H94C94.0884 30.6581 93.9444 28.3133 93.57 26V26Z" fill="url(#paint0_linear_31_313)"/>
<path d="M93.57 26H34.43C34.056 28.3134 33.9119 30.6582 34 33H94C94.0884 30.6582 93.9444 28.3134 93.57 26V26Z" fill="#77CACB"/>
<path d="M99 37.32V40H27C27 37.06 27 37.14 27 37C27.0796 35.3825 27.778 33.8575 28.9507 32.7407C30.1234 31.6238 31.6806 31.0006 33.3 31H92.68C94.3554 31.0026 95.9613 31.6694 97.146 32.854C98.3307 34.0387 98.9974 35.6446 99 37.32Z" fill="url(#paint1_linear_31_313)"/>
<path d="M99 40H27C26.9123 38.6648 26.966 37.324 27.16 36H98.85C99.0375 37.3246 99.0878 38.6651 99 40V40Z" fill="#8288A1"/>
<path d="M97.23 39H30.77C27.4438 38.9994 24.1665 39.8008 21.2159 41.3361C18.2652 42.8715 15.7283 45.0956 13.82 47.82C13.3437 48.5045 13.0639 49.3063 13.0107 50.1385C12.9575 50.9708 13.133 51.8017 13.5183 52.5412C13.9035 53.2808 14.4838 53.9009 15.1962 54.3343C15.9086 54.7677 16.7261 54.9979 17.56 55H110.44C111.274 54.9979 112.091 54.7677 112.804 54.3343C113.516 53.9009 114.096 53.2808 114.482 52.5412C114.867 51.8017 115.043 50.9708 114.989 50.1385C114.936 49.3063 114.656 48.5045 114.18 47.82C112.271 45.0962 109.734 42.8726 106.784 41.3373C103.833 39.802 100.556 39.0003 97.23 39V39Z" fill="url(#paint2_linear_31_313)"/>
<path d="M110.44 55H17.56C16.7379 54.9994 15.9313 54.7765 15.2256 54.355C14.5198 53.9335 13.9411 53.3291 13.5507 52.6056C13.1603 51.8822 12.9727 51.0667 13.0078 50.2454C13.0429 49.4241 13.2993 48.6275 13.75 47.94C14.1645 48.5723 14.7297 49.0916 15.3948 49.4512C16.0599 49.8108 16.8039 49.9994 17.56 50H110.44C111.196 50.0012 111.941 49.8134 112.606 49.4536C113.272 49.0939 113.837 48.5736 114.25 47.94C114.701 48.6275 114.957 49.4241 114.992 50.2454C115.027 51.0667 114.84 51.8822 114.449 52.6056C114.059 53.3291 113.48 53.9335 112.774 54.355C112.069 54.7765 111.262 54.9994 110.44 55V55Z" fill="#5B8DC9"/>
<path d="M94 55C91.944 56.8833 89.7064 58.5582 87.32 60C72.25 69.32 55.72 69.32 40.69 60C38.2994 58.5597 36.0583 56.8848 34 55H94Z" fill="url(#paint3_linear_31_313)"/>
<path d="M94 55C91.944 56.8833 89.7064 58.5582 87.32 60H40.69C38.2994 58.5597 36.0583 56.8848 34 55H94Z" fill="#42455E"/>
<path d="M40.59 95.44L33 126.76C32.9685 126.891 32.9631 127.028 32.9843 127.161C33.0054 127.294 33.0526 127.422 33.1232 127.537C33.1938 127.653 33.2863 127.753 33.3956 127.832C33.5048 127.911 33.6287 127.968 33.76 128C33.8913 128.031 34.0276 128.037 34.161 128.016C34.2943 127.995 34.4223 127.947 34.5374 127.877C34.6525 127.806 34.7527 127.714 34.832 127.604C34.9114 127.495 34.9685 127.371 35 127.24L42.58 95.92C42.6437 95.6561 42.5999 95.3777 42.4583 95.1461C42.3167 94.9145 42.0889 94.7486 41.825 94.685C41.5611 94.6213 41.2827 94.6651 41.0511 94.8067C40.8195 94.9483 40.6537 95.1761 40.59 95.44Z" fill="#47566A"/>
<path d="M47.26 67.89L42.68 86.78C42.619 87.0452 42.6659 87.3238 42.8103 87.5545C42.9547 87.7851 43.1848 87.949 43.45 88.01C43.7152 88.071 43.9938 88.0241 44.2245 87.8797C44.4551 87.7353 44.619 87.5052 44.68 87.24L49.25 68.37C49.3137 68.1061 49.2699 67.8277 49.1283 67.5961C48.9867 67.3645 48.7589 67.1986 48.495 67.135C48.2311 67.0713 47.9527 67.1151 47.7211 67.2567C47.4895 67.3983 47.3237 67.6261 47.26 67.89Z" fill="#47566A"/>
<path d="M80.74 67.89C80.7085 67.7586 80.6514 67.6348 80.572 67.5256C80.4927 67.4163 80.3926 67.3237 80.2774 67.2532C80.1623 67.1826 80.0343 67.1354 79.901 67.1142C79.7676 67.0931 79.6313 67.0984 79.5 67.13C79.3687 67.1615 79.2448 67.2186 79.1356 67.2979C79.0263 67.3773 78.9338 67.4774 78.8632 67.5926C78.7926 67.7077 78.7454 67.8356 78.7243 67.969C78.7031 68.1024 78.7085 68.2386 78.74 68.37L88 106.47C88.0637 106.735 88.2301 106.964 88.4626 107.107C88.6951 107.249 88.9748 107.294 89.24 107.23C89.5052 107.166 89.7343 107 89.8768 106.767C90.0193 106.535 90.0637 106.255 90 105.99L80.74 67.89Z" fill="#47566A"/>
<path d="M93 118.59C92.9363 118.325 92.7699 118.096 92.5374 117.953C92.3049 117.811 92.0252 117.766 91.76 117.83C91.4948 117.894 91.2657 118.06 91.1232 118.293C90.9807 118.525 90.9363 118.805 91 119.07L93 127.24C93.0315 127.371 93.0886 127.495 93.168 127.604C93.2473 127.714 93.3475 127.806 93.4626 127.877C93.5777 127.947 93.7057 127.995 93.839 128.016C93.9724 128.037 94.1087 128.031 94.24 128C94.3713 127.968 94.4951 127.911 94.6044 127.832C94.7137 127.753 94.8062 127.653 94.8768 127.537C94.9474 127.422 94.9946 127.294 95.0157 127.161C95.0369 127.028 95.0315 126.891 95 126.76L93 118.59Z" fill="#47566A"/>
<path d="M56.89 87.12L58.35 72.12C58.3765 71.8548 58.2966 71.5899 58.1278 71.3836C57.959 71.1773 57.7152 71.0465 57.45 71.02C57.1848 70.9935 56.9199 71.0734 56.7136 71.2422C56.5073 71.411 56.3765 71.6548 56.35 71.92C54.41 91.92 54.89 85.92 54.89 87.05C54.8807 87.3152 54.9772 87.5733 55.1581 87.7674C55.3391 87.9615 55.5898 88.0757 55.855 88.085C56.1202 88.0943 56.3783 87.9978 56.5724 87.8169C56.7665 87.6359 56.8807 87.3852 56.89 87.12Z" fill="#47566A"/>
<path d="M54.3341 117.699L55.9943 97.4888C56.0245 97.1315 55.9336 96.7746 55.7417 96.4966C55.5497 96.2187 55.2725 96.0425 54.9709 96.0067C54.6693 95.971 54.3681 96.0787 54.1335 96.3061C53.8989 96.5335 53.7502 96.862 53.72 97.2193C51.514 124.166 52.0598 116.082 52.0598 117.605C52.0493 117.962 52.1589 118.31 52.3647 118.571C52.5705 118.833 52.8556 118.987 53.1572 118.999C53.4587 119.012 53.7522 118.882 53.9729 118.638C54.1936 118.394 54.3235 118.056 54.3341 117.699Z" fill="#47566A"/>
<path d="M73.15 86.9L72.08 75.9C72.0535 75.6348 71.9227 75.391 71.7164 75.2222C71.5101 75.0534 71.2452 74.9735 70.98 75C70.7148 75.0265 70.471 75.1573 70.3022 75.3636C70.1334 75.5699 70.0535 75.8348 70.08 76.1L71.15 87.1C71.1765 87.3652 71.3073 87.609 71.5136 87.7778C71.7199 87.9466 71.9848 88.0265 72.25 88C72.5152 87.9735 72.759 87.8427 72.9278 87.6364C73.0966 87.4301 73.1765 87.1652 73.15 86.9V86.9Z" fill="#47566A"/>
<path d="M76.075 111.905L75.005 100.905C74.9785 100.64 74.8477 100.396 74.6414 100.227C74.4351 100.058 74.1702 99.9785 73.905 100.005C73.6398 100.032 73.396 100.162 73.2272 100.369C73.0584 100.575 72.9785 100.84 73.005 101.105L74.075 112.105C74.1015 112.37 74.2323 112.614 74.4386 112.783C74.6449 112.952 74.9098 113.032 75.175 113.005C75.4402 112.978 75.684 112.848 75.8528 112.641C76.0216 112.435 76.1015 112.17 76.075 111.905V111.905Z" fill="#47566A"/>
<path d="M87.93 18.49C84.5877 12.1266 78.8594 7.3476 72 5.2C71.7427 5.12043 71.4644 5.14632 71.2262 5.27197C70.9881 5.39762 70.8096 5.61274 70.73 5.87C70.6504 6.12726 70.6763 6.40559 70.802 6.64376C70.9276 6.88193 71.1427 7.06043 71.4 7.14C77.7393 9.13252 83.034 13.5502 86.13 19.43C86.1917 19.5482 86.2761 19.6531 86.3784 19.7386C86.4806 19.8242 86.5987 19.8888 86.7259 19.9287C86.8532 19.9687 86.987 19.9831 87.1198 19.9714C87.2526 19.9596 87.3818 19.9217 87.5 19.86C87.6182 19.7983 87.7231 19.7139 87.8086 19.6116C87.8942 19.5094 87.9588 19.3913 87.9987 19.2641C88.0387 19.1368 88.0531 19.003 88.0414 18.8702C88.0296 18.7374 87.9917 18.6082 87.93 18.49V18.49Z" fill="#47566A"/>
<path d="M115 47.24C113.367 44.906 111.29 42.9168 108.888 41.3863C106.486 39.8557 103.805 38.8137 101 38.32V37.32C100.999 35.6057 100.399 33.9457 99.3028 32.6273C98.2072 31.3088 96.6851 30.4148 95 30.1C95 21.8783 91.7339 13.9933 85.9203 8.17966C80.1067 2.36604 72.2217 -0.900024 64 -0.900024C55.7783 -0.900024 47.8933 2.36604 42.0797 8.17966C36.2661 13.9933 33 21.8783 33 30.1C31.3149 30.4148 29.7928 31.3088 28.6972 32.6273C27.6015 33.9457 27.0012 35.6057 27 37.32V38.32C24.1947 38.8137 21.5143 39.8557 19.112 41.3863C16.7097 42.9168 14.6328 44.906 13 47.24C12.4243 48.0761 12.0871 49.0532 12.0247 50.0664C11.9623 51.0797 12.177 52.0908 12.6457 52.9913C13.1144 53.8917 13.8195 54.6475 14.6853 55.1776C15.5511 55.7077 16.5449 55.992 17.56 56H33.56C35.56 57.88 47.38 68 63.96 68C80.54 68 92.36 57.9 94.4 56H110.4C111.419 55.9992 112.417 55.7202 113.289 55.193C114.16 54.6658 114.871 53.9106 115.345 53.0088C115.818 52.1071 116.037 51.0931 115.976 50.0764C115.915 49.0597 115.578 48.0789 115 47.24V47.24ZM64 1.99998C71.5211 1.9955 78.7498 4.9132 84.1605 10.1373C89.5712 15.3615 92.7407 22.4833 93 30H35C35.2593 22.4833 38.4288 15.3615 43.8395 10.1373C49.2502 4.9132 56.4789 1.9955 64 1.99998V1.99998ZM29 38V37.34C29.0026 35.9351 29.5619 34.5886 30.5553 33.5952C31.5486 32.6019 32.8952 32.0426 34.3 32.04H93.68C95.0848 32.0426 96.4314 32.6019 97.4247 33.5952C98.4181 34.5886 98.9774 35.9351 98.98 37.34V38H29ZM36.76 56H91.22C74.57 69.11 53.85 69.41 36.78 56H36.76ZM110.42 54H17.56C16.9139 53.9965 16.281 53.8167 15.7295 53.48C15.178 53.1434 14.7288 52.6625 14.4304 52.0894C14.1321 51.5163 13.9957 50.8726 14.0362 50.2278C14.0766 49.5829 14.2923 48.9613 14.66 48.43C16.47 45.8335 18.8793 43.7116 21.6837 42.2441C24.4881 40.7766 27.6049 40.0068 30.77 40H97.23C100.392 40.0023 103.506 40.766 106.31 42.2264C109.114 43.6867 111.526 45.8009 113.34 48.39C113.723 48.9206 113.951 49.5469 113.999 50.1992C114.047 50.8516 113.913 51.5046 113.613 52.0857C113.313 52.6668 112.857 53.1533 112.297 53.4912C111.737 53.8291 111.094 54.0052 110.44 54H110.42Z" fill="#47566A"/>
</g>
<defs>
<linearGradient id="paint0_linear_31_313" x1="64" y1="33" x2="64" y2="0.99996" gradientUnits="userSpaceOnUse">
<stop stop-color="#9DD5DF"/>
<stop offset="1" stop-color="#C3E1F5"/>
</linearGradient>
<linearGradient id="paint1_linear_31_313" x1="63" y1="40" x2="63" y2="31" gradientUnits="userSpaceOnUse">
<stop stop-color="#949AAF"/>
<stop offset="1" stop-color="#C6CCDA"/>
</linearGradient>
<linearGradient id="paint2_linear_31_313" x1="64" y1="55" x2="64" y2="39" gradientUnits="userSpaceOnUse">
<stop stop-color="#7AA8D7"/>
<stop offset="1" stop-color="#96C8EA"/>
</linearGradient>
<linearGradient id="paint3_linear_31_313" x1="64" y1="66.99" x2="64" y2="55" gradientUnits="userSpaceOnUse">
<stop stop-color="#454B60"/>
<stop offset="1" stop-color="#575F7C"/>
</linearGradient>
<clipPath id="clip0_31_313">
<rect width="128" height="128" fill="white"/>
</clipPath>
</defs>
</svg>
