<svg width="128" height="128" viewBox="0 0 128 128" fill="none" xmlns="http://www.w3.org/2000/svg">
<g clip-path="url(#clip0_31_355)">
<path d="M86 37V89.29C86.0376 90.7657 85.4879 92.196 84.4716 93.2666C83.4554 94.3373 82.0556 94.9607 80.58 95H47.42C45.9443 94.9607 44.5446 94.3373 43.5283 93.2666C42.5121 92.196 41.9624 90.7657 42 89.29V37C41.9626 30.3474 43.4803 23.7781 46.4318 17.816C49.3833 11.8539 53.6871 6.66397 59 2.66C60.4396 1.57143 62.1951 0.982422 64 0.982422C65.8048 0.982422 67.5604 1.57143 69 2.66C74.3111 6.66559 78.6136 11.8559 81.565 17.8176C84.5163 23.7794 86.035 30.3478 86 37V37Z" fill="url(#paint0_linear_31_355)"/>
<path d="M86 83.29V89.29C86.0376 90.7657 85.4879 92.196 84.4716 93.2667C83.4554 94.3373 82.0556 94.9608 80.58 95H47.42C45.9443 94.9608 44.5446 94.3373 43.5283 93.2667C42.5121 92.196 41.9624 90.7657 42 89.29V83.29C41.9624 84.7657 42.5121 86.196 43.5283 87.2667C44.5446 88.3373 45.9443 88.9608 47.42 89H80.58C82.0556 88.9608 83.4554 88.3373 84.4716 87.2667C85.4879 86.196 86.0376 84.7657 86 83.29V83.29Z" fill="#C7CDD8"/>
<path d="M79.07 13.43C74.3213 15.522 69.1891 16.6024 64 16.6024C58.8109 16.6024 53.6787 15.522 48.93 13.43C51.6056 9.25893 55.0179 5.60949 59 2.66C60.4396 1.57143 62.1951 0.982422 64 0.982422C65.8048 0.982422 67.5604 1.57143 69 2.66C72.9854 5.6058 76.3983 9.25589 79.07 13.43V13.43Z" fill="url(#paint1_linear_31_355)"/>
<path d="M79.07 13.43C74.3213 15.522 69.1891 16.6024 64 16.6024C58.8109 16.6024 53.6787 15.522 48.93 13.43C49.7968 12.0947 50.7383 10.8093 51.75 9.58002C59.6943 12.2752 68.3057 12.2752 76.25 9.58002C77.261 10.8098 78.2025 12.0951 79.07 13.43V13.43Z" fill="#5B8DC9"/>
<path d="M64 73C71.1797 73 77 67.1797 77 60C77 52.8203 71.1797 47 64 47C56.8203 47 51 52.8203 51 60C51 67.1797 56.8203 73 64 73Z" fill="url(#paint2_linear_31_355)"/>
<path d="M76.85 62C76.3794 58.9293 74.8248 56.1286 72.4676 54.1051C70.1104 52.0816 67.1066 50.9692 64 50.9692C60.8934 50.9692 57.8896 52.0816 55.5324 54.1051C53.1752 56.1286 51.6206 58.9293 51.15 62C50.8662 60.148 50.9861 58.2564 51.5015 56.4551C52.0168 54.6537 52.9155 52.985 54.136 51.5633C55.3564 50.1416 56.8697 49.0005 58.5723 48.2182C60.2748 47.4359 62.1263 47.0309 64 47.0309C65.8737 47.0309 67.7252 47.4359 69.4277 48.2182C71.1303 49.0005 72.6436 50.1416 73.864 51.5633C75.0845 52.985 75.9832 54.6537 76.4985 56.4551C77.0139 58.2564 77.1338 60.148 76.85 62V62Z" fill="#77CACB"/>
<path d="M48 95H80L78 103H50L48 95Z" fill="url(#paint3_linear_31_355)"/>
<path d="M86 54L114 76.63V88H86V54Z" fill="url(#paint4_linear_31_355)"/>
<path d="M42 54L14 76.63V88H42V54Z" fill="url(#paint5_linear_31_355)"/>
<path d="M114 82H86V88H114V82Z" fill="#5B8DC9"/>
<path d="M42 82H14V88H42V82Z" fill="#5B8DC9"/>
<path d="M70.69 103C71.4133 103.688 71.9906 104.514 72.3875 105.43C72.7844 106.346 72.9927 107.332 73 108.33C73 116.33 64 127 64 127C64 127 55 116.33 55 108.33C55.0073 107.332 55.2156 106.346 55.6125 105.43C56.0094 104.514 56.5867 103.688 57.31 103" fill="url(#paint6_linear_31_355)"/>
<path d="M67.9 103C68.3227 103.401 68.6601 103.883 68.892 104.417C69.124 104.952 69.2458 105.527 69.25 106.11C69.25 110.78 64 117 64 117C64 117 58.75 110.78 58.75 106.11C58.7542 105.527 58.876 104.952 59.108 104.417C59.3399 103.883 59.6773 103.401 60.1 103" fill="url(#paint7_linear_31_355)"/>
<path d="M64 46C61.231 46 58.5243 46.8211 56.222 48.3594C53.9197 49.8978 52.1253 52.0843 51.0657 54.6424C50.006 57.2006 49.7288 60.0155 50.269 62.7313C50.8092 65.447 52.1425 67.9416 54.1005 69.8995C56.0584 71.8574 58.553 73.1908 61.2687 73.731C63.9844 74.2712 66.7994 73.9939 69.3575 72.9343C71.9157 71.8747 74.1022 70.0803 75.6405 67.778C77.1789 65.4757 78 62.7689 78 60C78 56.287 76.525 52.726 73.8995 50.1005C71.274 47.475 67.713 46 64 46ZM64 72C61.6266 72 59.3065 71.2962 57.3331 69.9776C55.3597 68.6591 53.8217 66.7849 52.9134 64.5922C52.0052 62.3995 51.7675 59.9867 52.2306 57.6589C52.6936 55.3311 53.8365 53.1929 55.5147 51.5147C57.1929 49.8365 59.3311 48.6936 61.6589 48.2306C63.9867 47.7676 66.3995 48.0052 68.5922 48.9134C70.7849 49.8217 72.659 51.3598 73.9776 53.3332C75.2962 55.3065 76 57.6266 76 60C76 63.1826 74.7357 66.2348 72.4853 68.4853C70.2348 70.7357 67.1826 72 64 72Z" fill="#47566A"/>
<path d="M114.64 75.83L87 53.51V37C87 22.43 79.72 12.43 80 13C80 13 80 12.95 80 12.92C77.2345 8.62292 73.7065 4.86781 69.59 1.84001C67.9786 0.631839 66.019 -0.0212402 64.005 -0.0212402C61.991 -0.0212402 60.0313 0.631839 58.42 1.84001C52.9777 5.93814 48.5684 11.2514 45.5439 17.3559C42.5195 23.4605 40.9634 30.1874 41 37V53.51L13.36 75.83C12.83 76.27 12.98 75.77 12.98 88C12.98 88.2652 13.0853 88.5196 13.2729 88.7071C13.4604 88.8947 13.7148 89 13.98 89H41C40.8988 90.7525 41.4968 92.4736 42.6629 93.7859C43.8289 95.0981 45.4677 95.8944 47.22 96L49 103.25C49.0528 103.474 49.181 103.672 49.3632 103.813C49.5453 103.953 49.7702 104.026 50 104.02H55.21C54.4171 105.318 53.9984 106.809 54 108.33C54 116.61 62.86 127.21 63.24 127.66C63.3337 127.777 63.4524 127.871 63.5874 127.936C63.7224 128.001 63.8702 128.034 64.02 128.034C64.1697 128.034 64.3175 128.001 64.4525 127.936C64.5875 127.871 64.7063 127.777 64.8 127.66C65.18 127.21 74.04 116.66 74.04 108.33C74.0333 106.799 73.6005 105.299 72.79 104H78C78.2298 104.006 78.4547 103.933 78.6368 103.793C78.8189 103.652 78.9472 103.454 79 103.23L80.8 96C84 95.9 87 93.25 87 89H114C114.265 89 114.52 88.8947 114.707 88.7071C114.895 88.5196 115 88.2652 115 88C115 75.77 115.17 76.27 114.64 75.83ZM59.64 3.48001C60.902 2.53313 62.4372 2.02126 64.015 2.02126C65.5928 2.02126 67.1279 2.53313 68.39 3.48001C71.9497 6.11747 75.0396 9.33585 77.53 13C68.8437 16.4702 59.1562 16.4702 50.47 13C52.9623 9.33094 56.0597 6.11183 59.63 3.48001H59.64ZM15 87V77.12L41 56.12V87H15ZM72 108.35C72 114.53 66.17 122.62 64 125.35C61.85 122.58 56 114.49 56 108.35C56.013 106.731 56.6382 105.177 57.75 104H70.25C71.3571 105.172 71.9819 106.718 72 108.33V108.35ZM77.2 102H50.8L49.31 96H78.69L77.2 102ZM85 89.29C85.0213 89.8901 84.9237 90.4884 84.7127 91.0506C84.5018 91.6127 84.1816 92.1275 83.7707 92.5654C83.3598 93.0032 82.8664 93.3554 82.3187 93.6016C81.7711 93.8478 81.1802 93.9832 80.58 94H47.42C46.8198 93.9832 46.2288 93.8478 45.6812 93.6016C45.1336 93.3554 44.6401 93.0032 44.2293 92.5654C43.8184 92.1275 43.4982 91.6127 43.2872 91.0506C43.0763 90.4884 42.9786 89.8901 43 89.29V37C42.9896 29.1282 45.1823 21.4105 49.33 14.72C58.7193 18.5948 69.2607 18.5948 78.65 14.72C86.48 27.25 85 38.06 85 54V89.29ZM113 87H87V56.14L113 77.14V87Z" fill="#47566A"/>
</g>
<defs>
<linearGradient id="paint0_linear_31_355" x1="64" y1="95" x2="64" y2="1" gradientUnits="userSpaceOnUse">
<stop stop-color="#DDE1E8"/>
<stop offset="1" stop-color="#F3F4F5"/>
</linearGradient>
<linearGradient id="paint1_linear_31_355" x1="64" y1="16.6" x2="64" y2="1" gradientUnits="userSpaceOnUse">
<stop stop-color="#7AA8D7"/>
<stop offset="1" stop-color="#96C8EA"/>
</linearGradient>
<linearGradient id="paint2_linear_31_355" x1="64" y1="73" x2="64" y2="47" gradientUnits="userSpaceOnUse">
<stop stop-color="#9DD5DF"/>
<stop offset="1" stop-color="#C3E1F5"/>
</linearGradient>
<linearGradient id="paint3_linear_31_355" x1="64" y1="103" x2="64" y2="95" gradientUnits="userSpaceOnUse">
<stop stop-color="#949AAF"/>
<stop offset="1" stop-color="#C6CCDA"/>
</linearGradient>
<linearGradient id="paint4_linear_31_355" x1="100" y1="88" x2="100" y2="54" gradientUnits="userSpaceOnUse">
<stop stop-color="#7AA8D7"/>
<stop offset="1" stop-color="#96C8EA"/>
</linearGradient>
<linearGradient id="paint5_linear_31_355" x1="28" y1="88" x2="28" y2="54" gradientUnits="userSpaceOnUse">
<stop stop-color="#7AA8D7"/>
<stop offset="1" stop-color="#96C8EA"/>
</linearGradient>
<linearGradient id="paint6_linear_31_355" x1="64" y1="127" x2="64" y2="103" gradientUnits="userSpaceOnUse">
<stop stop-color="#DA5466"/>
<stop offset="1" stop-color="#E87092"/>
</linearGradient>
<linearGradient id="paint7_linear_31_355" x1="64" y1="117" x2="64" y2="103" gradientUnits="userSpaceOnUse">
<stop stop-color="#FBCC88"/>
<stop offset="1" stop-color="#FFE5C3"/>
</linearGradient>
<clipPath id="clip0_31_355">
<rect width="128" height="128" fill="white"/>
</clipPath>
</defs>
</svg>
