<svg width="128" height="128" viewBox="0 0 128 128" fill="none" xmlns="http://www.w3.org/2000/svg">
<g clip-path="url(#clip0_31_245)">
<path d="M64 2.38004V19.38C64 19.38 71 16.28 78 19.38C85 22.48 92 19.38 92 19.38V2.38004C92 2.38004 85 5.48004 78 2.38004C71 -0.719964 64 2.38004 64 2.38004Z" fill="url(#paint0_linear_31_245)"/>
<path d="M92 15.38V19.38C92 19.38 85 22.48 78 19.38C71 16.28 64 19.38 64 19.38V15.38C64 15.38 71 12.28 78 15.38C85 18.48 92 15.38 92 15.38Z" fill="#5B8DC9"/>
<path d="M23.22 62.94C26.846 55.1851 32.6087 48.6253 39.832 44.0306C47.0552 39.436 55.4392 36.997 64 37C104.15 37 124.14 86 95.53 114.11C67.34 141.8 19 122 19 82" fill="url(#paint1_linear_31_245)"/>
<path d="M79.73 124.17C50.49 135.09 19 113.47 19 82L19.26 80.84C20.4691 92.032 25.8291 102.364 34.2825 109.798C42.7358 117.232 53.6684 121.228 64.9232 120.997C76.1779 120.766 86.9374 116.325 95.0785 108.55C103.22 100.776 108.151 90.2322 108.9 79C109.548 88.6659 107.059 98.2827 101.803 106.421C96.5479 114.559 88.8065 120.784 79.73 124.17V124.17Z" fill="#77CACB"/>
<path d="M19 82C24.5228 82 29 77.5228 29 72C29 66.4772 24.5228 62 19 62C13.4772 62 9 66.4772 9 72C9 77.5228 13.4772 82 19 82Z" fill="url(#paint2_linear_31_245)"/>
<path d="M19 82C17.517 82.0003 16.0524 81.6707 14.7125 81.0352C13.3725 80.3996 12.1907 79.474 11.2526 78.3253C10.3146 77.1767 9.64372 75.8338 9.28871 74.3938C8.93369 72.9539 8.90339 71.4531 9.2 70C9.65903 72.2606 10.8855 74.2929 12.6715 75.7528C14.4575 77.2126 16.6933 78.01 19 78.01C21.3067 78.01 23.5425 77.2126 25.3285 75.7528C27.1145 74.2929 28.341 72.2606 28.8 70C29.0966 71.4531 29.0663 72.9539 28.7113 74.3938C28.3563 75.8338 27.6854 77.1767 26.7474 78.3253C25.8093 79.474 24.6275 80.3996 23.2875 81.0352C21.9476 81.6707 20.483 82.0003 19 82V82Z" fill="#F6B756"/>
<path d="M109.3 90.1C110.472 83.5591 110.212 76.842 108.54 70.411C106.867 63.9799 103.821 57.9876 99.6109 52.8463C95.401 47.7051 90.1272 43.537 84.1523 40.6288C78.1775 37.7207 71.6435 36.1415 65 36V20.08C66.78 19.46 72.21 17.94 77.57 20.31C79.9188 21.2849 82.4369 21.7867 84.98 21.7867C87.5231 21.7867 90.0412 21.2849 92.39 20.31C93.26 19.93 93 20.62 93 2.38003C93.0047 2.20891 92.9654 2.03945 92.8858 1.88788C92.8062 1.73631 92.6891 1.6077 92.5456 1.51437C92.4021 1.42104 92.237 1.36611 92.0662 1.35485C91.8954 1.34358 91.7245 1.37636 91.57 1.45003C91.5 1.45003 84.88 4.32003 78.39 1.45003C74.1299 -0.307335 69.3835 -0.491661 65 0.93003C64.9907 0.664813 64.8765 0.414147 64.6824 0.233174C64.4883 0.0522014 64.2302 -0.0442531 63.965 -0.0349705C63.6998 -0.0256879 63.4491 0.0885713 63.2681 0.282671C63.0872 0.476772 62.9907 0.734813 63 1.00003V36C52.4913 36.2093 42.3734 40.0221 34.34 46.8C16.18 40.48 4 40 0.789998 45.51C-2.29 50.86 3.94 59.3 10 65.68C8.88051 67.2587 8.19731 69.1047 8.01938 71.0318C7.84145 72.9589 8.17508 74.8988 8.98659 76.6557C9.7981 78.4126 11.0588 79.9243 12.6413 81.0383C14.2239 82.1522 16.0723 82.8289 18 83C18.81 121.41 64.08 142.2 93.66 117.21C102.19 120.21 122.66 126.36 127.21 118.52C130.39 113 123.86 102.65 109.3 90.1ZM77.59 3.31003C81.8556 5.07402 86.6106 5.25841 91 3.83003V18.68C89.21 19.3 83.78 20.81 78.43 18.45C74.1624 16.6635 69.393 16.4788 65 17.93V3.08003C66.81 2.46003 72.24 1.00003 77.59 3.31003ZM65 45V38C104.69 38.91 123 88.27 93.21 114.81C71.32 107 46 92.66 27.77 78.64C28.7082 77.4018 29.3735 75.9788 29.722 74.4649C30.0706 72.9509 30.0945 71.3803 29.7922 69.8564C29.4898 68.3326 28.8682 66.89 27.9681 65.6238C27.068 64.3576 25.9099 63.2963 24.57 62.51C28.1246 55.3079 33.5877 49.2195 40.3641 44.9082C47.1405 40.5969 54.9702 38.2281 63 38.06V45C63 45.2652 63.1054 45.5196 63.2929 45.7071C63.4804 45.8947 63.7348 46 64 46C64.2652 46 64.5196 45.8947 64.7071 45.7071C64.8946 45.5196 65 45.2652 65 45ZM32.55 48.36C28.5021 52.1602 25.1723 56.6588 22.72 61.64C20.7805 60.9332 18.6804 60.79 16.663 61.2272C14.6455 61.6643 12.793 62.6638 11.32 64.11C-8.39 43.23 5.23 39.08 32.55 48.36ZM10 72C10 70.22 10.5278 68.4799 11.5168 66.9999C12.5057 65.5199 13.9113 64.3663 15.5558 63.6851C17.2004 63.0039 19.01 62.8257 20.7558 63.173C22.5016 63.5202 24.1053 64.3774 25.364 65.6361C26.6226 66.8947 27.4798 68.4984 27.8271 70.2442C28.1743 71.99 27.9961 73.7996 27.3149 75.4442C26.6337 77.0887 25.4802 78.4943 24.0001 79.4833C22.5201 80.4722 20.78 81 19 81C16.613 81 14.3239 80.0518 12.636 78.364C10.9482 76.6762 10 74.387 10 72ZM20 83C22.3622 82.7687 24.5863 81.7794 26.34 80.18C44.79 94.39 69.79 108.53 91.39 116.4C63 139.16 20.83 119.1 20.05 83H20ZM125.4 117.5C122.89 121.85 111.4 121.12 95.4 115.65C102.098 109.433 106.773 101.346 108.82 92.44C121.59 103.58 128 113.12 125.45 117.47L125.4 117.5Z" fill="#47566A"/>
</g>
<defs>
<linearGradient id="paint0_linear_31_245" x1="78" y1="20.76" x2="78" y2="1.00004" gradientUnits="userSpaceOnUse">
<stop stop-color="#7AA8D7"/>
<stop offset="1" stop-color="#96C8EA"/>
</linearGradient>
<linearGradient id="paint1_linear_31_245" x1="64" y1="127" x2="64" y2="37" gradientUnits="userSpaceOnUse">
<stop stop-color="#9DD5DF"/>
<stop offset="1" stop-color="#C3E1F5"/>
</linearGradient>
<linearGradient id="paint2_linear_31_245" x1="19" y1="82" x2="19" y2="62" gradientUnits="userSpaceOnUse">
<stop stop-color="#FBCC88"/>
<stop offset="1" stop-color="#FFE5C3"/>
</linearGradient>
<clipPath id="clip0_31_245">
<rect width="128" height="128" fill="white"/>
</clipPath>
</defs>
</svg>
