<svg width="1512" height="597" viewBox="0 0 1512 597" fill="none" xmlns="http://www.w3.org/2000/svg">
<g opacity="0.54">
<path opacity="0.54" d="M-256.526 430.88C-297.662 413.61 -272.478 386.93 -219.441 373.36C-166.404 359.78 -94.9661 356.33 -27.0137 355.1C40.9388 353.86 110.807 354.24 174.489 346.61C306.28 330.81 376.274 285.91 430.095 244.47C483.917 203.03 543.862 157.6 669.374 137.25C767.785 121.3 884.881 124.61 993.153 117.71C1182.16 105.67 1345.79 59.37 1405.51 1" stroke="url(#paint0_linear_40_2015)" stroke-width="0.8669" stroke-miterlimit="10"/>
<path opacity="0.54" d="M-249.021 436.22C-290.157 418.98 -265.538 392.36 -213.067 378.64C-208.388 377.41 -203.521 376.27 -198.559 375.19C-147.877 364.27 -83.4733 361.08 -21.8325 359.74C-9.9314 359.48 2.03252 359.27 13.9964 359.06C70.1734 358.08 126.727 357.06 179.042 350.69C195.999 348.63 211.95 346.08 226.96 343.12C328.261 323.17 386.919 284.47 432.859 248.31C436.187 245.68 439.547 243.04 442.939 240.39C493.149 201.16 551.744 160.5 665.48 140.32C698.012 134.55 732.584 130.59 769.481 128.13C813.035 125.22 858.849 124.41 903.784 123.46C934.464 122.81 964.891 122.08 994.817 120.57C1008.88 119.86 1022.86 118.96 1036.71 117.86C1124.88 110.87 1207.37 95.73 1273.5 75.4C1339.79 55.02 1390 29.53 1417.76 1.55005" stroke="url(#paint1_linear_40_2015)" stroke-width="0.8669" stroke-miterlimit="10"/>
<path opacity="0.54" d="M-241.516 441.56C-282.683 424.34 -258.63 397.79 -206.723 383.92C-202.076 382.68 -197.272 381.52 -192.342 380.43C-142.131 369.37 -78.0722 365.95 -16.6198 364.38C-4.75006 364.08 7.15106 363.83 19.0836 363.58C75.0721 362.41 131.5 361.23 183.627 354.78C200.52 352.69 216.441 350.13 231.419 347.15C332.5 327.07 390.687 288.38 435.685 252.16C438.951 249.53 442.248 246.88 445.545 244.23C494.594 204.95 551.744 164.65 661.712 143.41C693.835 137.2 727.874 132.47 765.525 129.68C810.02 126.38 857.53 125.8 903.502 125.29C934.872 124.94 965.896 124.6 996.513 123.44C1010.93 122.89 1025.21 122.15 1039.47 121.18C1130.19 115.02 1216.23 99.5701 1283.99 78.5301C1351.91 57.4501 1402.22 30.9601 1429.98 2.09009" stroke="url(#paint2_linear_40_2015)" stroke-width="0.8669" stroke-miterlimit="10"/>
<path opacity="0.54" d="M-234.043 446.9C-275.21 429.71 -251.753 403.22 -200.38 389.21C-195.796 387.96 -191.054 386.78 -186.156 385.68C-136.384 374.47 -72.7026 370.82 -11.4386 369.03C0.368311 368.69 12.2694 368.39 24.1391 368.1C79.9393 366.74 136.21 365.4 188.18 358.87C205.011 356.76 220.868 354.18 235.815 351.19C336.645 330.99 394.392 292.31 438.448 256.02C441.651 253.38 444.854 250.73 448.088 248.08C495.975 208.74 551.713 168.77 657.849 146.5C689.596 139.84 723.07 134.36 761.505 131.24C806.943 127.54 856.149 127.2 903.157 127.14C935.249 127.09 966.838 127.15 998.146 126.33C1012.87 125.95 1027.54 125.36 1042.17 124.52C1135.43 119.19 1225.02 103.44 1294.42 81.6899C1363.97 59.8999 1414.37 32.4199 1442.16 2.65991" stroke="url(#paint3_linear_40_2015)" stroke-width="0.8669" stroke-miterlimit="10"/>
<path opacity="0.54" d="M-226.538 452.25C-267.705 435.08 -244.813 408.66 -194.037 394.5C-189.484 393.23 -184.805 392.05 -179.97 390.93C-130.669 379.57 -67.333 375.7 -6.25742 373.69C5.51808 373.3 17.3564 372.97 29.2261 372.64C84.8378 371.09 140.983 369.58 192.796 362.98C209.564 360.84 225.39 358.25 240.274 355.24C340.884 334.92 398.129 296.24 441.306 259.89C444.446 257.25 447.586 254.59 450.726 251.93C497.451 212.54 551.744 172.83 654.081 149.6C685.42 142.48 718.391 136.25 757.58 132.81C803.991 128.71 854.861 128.61 902.905 128.99C935.688 129.25 967.875 129.69 999.904 129.22C1014.95 129 1029.99 128.56 1045.03 127.86C1140.83 123.37 1233.97 107.3 1305 84.85C1376.19 62.36 1426.68 33.88 1454.5 3.22998" stroke="url(#paint4_linear_40_2015)" stroke-width="0.8669" stroke-miterlimit="10"/>
<path opacity="0.54" d="M-219.033 457.59C-260.231 440.45 -237.905 414.08 -187.694 399.78C-183.204 398.5 -178.556 397.3 -173.752 396.17C-124.923 384.66 -61.932 380.57 -1.04478 378.33C10.6993 377.9 22.5062 377.53 34.3131 377.16C89.7364 375.42 145.756 373.75 197.38 367.07C214.086 364.91 229.849 362.3 244.733 359.27C345.123 338.82 401.897 300.16 444.132 263.74C447.209 261.09 450.255 258.44 453.332 255.77C498.896 216.33 551.713 176.83 650.282 152.68C681.275 145.09 713.649 138.13 753.592 134.35C800.945 129.86 853.511 129.99 902.623 130.81C936.128 131.37 968.911 132.2 1001.6 132.08C1016.99 132.02 1032.34 131.74 1047.79 131.17C1146.14 127.51 1242.82 111.14 1315.49 87.98C1388.28 64.78 1438.89 35.31 1466.75 3.77002" stroke="url(#paint5_linear_40_2015)" stroke-width="0.8669" stroke-miterlimit="10"/>
<path opacity="0.54" d="M-211.528 462.93C-252.726 445.81 -230.997 419.51 -181.32 405.06C-176.892 403.77 -172.276 402.55 -167.534 401.41C-119.145 389.76 -56.5308 385.43 4.13658 382.98C15.8493 382.51 27.5934 382.09 39.3689 381.68C94.6038 379.76 150.467 377.92 201.934 371.16C218.576 368.97 234.308 366.34 249.13 363.3C349.3 342.73 405.603 304.07 446.895 267.59C449.91 264.94 452.893 262.28 455.876 259.61C500.278 220.12 551.619 180.78 646.419 155.77C677.036 147.7 708.845 140.01 749.573 135.91C797.868 131.02 852.13 131.39 902.277 132.66C936.473 133.52 969.853 134.74 1003.23 134.97C1018.93 135.08 1034.67 134.95 1050.52 134.51C1151.42 131.68 1251.65 115 1325.94 91.1401C1400.37 67.2401 1451.08 36.7701 1478.96 4.34009" stroke="url(#paint6_linear_40_2015)" stroke-width="0.8669" stroke-miterlimit="10"/>
<path opacity="0.54" d="M-204.054 468.27C-245.284 451.18 -224.088 424.94 -175.008 410.35C-170.612 409.05 -166.059 407.82 -161.349 406.66C-113.43 394.86 -51.1614 390.31 9.31761 387.63C20.9675 387.12 32.7116 386.66 44.4243 386.21C99.5022 384.1 155.208 382.09 206.487 375.26C223.066 373.05 238.767 370.4 253.526 367.34C353.476 346.65 409.308 308 449.658 271.45C452.579 268.79 455.499 266.13 458.419 263.46C501.659 223.92 551.43 184.69 642.557 158.86C672.796 150.29 704.041 141.9 745.553 137.46C794.79 132.17 850.748 132.78 901.932 134.49C936.85 135.65 970.795 137.26 1004.9 137.84C1020.94 138.11 1036.99 138.14 1053.25 137.83C1156.69 135.84 1260.47 118.85 1336.4 94.2799C1412.45 69.6699 1463.26 38.2099 1491.15 4.88989" stroke="url(#paint7_linear_40_2015)" stroke-width="0.8669" stroke-miterlimit="10"/>
<path opacity="0.54" d="M-196.549 473.62C-237.779 456.56 -217.18 430.38 -168.634 415.64C-164.3 414.32 -159.779 413.08 -155.131 411.91C-107.652 399.96 -45.7917 395.18 14.5303 392.28C26.1488 391.72 37.8301 391.22 49.5114 390.73C104.401 388.43 159.981 386.26 211.071 379.35C227.62 377.12 243.226 374.45 257.985 371.38C357.684 350.56 413.076 311.92 452.485 275.31C455.342 272.65 458.2 269.98 461.026 267.3C503.072 227.71 551.273 188.56 638.757 161.95C668.62 152.87 699.33 143.78 741.565 139.02C791.745 133.34 849.397 134.18 901.618 136.33C937.227 137.79 971.768 139.8 1006.56 140.73C1022.92 141.16 1039.34 141.35 1055.99 141.17C1161.97 140.01 1269.26 122.71 1346.86 97.44C1424.54 72.13 1475.45 39.66 1503.36 5.45996" stroke="url(#paint8_linear_40_2015)" stroke-width="0.8669" stroke-miterlimit="10"/>
<path opacity="0.54" d="M-189.045 478.96C-230.306 461.92 -210.24 435.81 -162.291 420.92C-157.989 419.59 -153.53 418.33 -148.945 417.15C-101.937 405.06 -40.422 400.05 19.7115 396.93C31.2986 396.33 42.9485 395.79 54.5984 395.26C109.3 392.77 164.723 390.44 215.656 383.45C232.141 381.19 247.717 378.51 262.412 375.42C361.892 354.48 416.813 315.85 455.311 279.17C458.105 276.51 460.869 273.83 463.632 271.15C504.517 231.51 551.053 192.39 634.958 165.05C664.412 155.45 694.589 145.67 737.609 140.58C788.73 134.5 848.079 135.57 901.367 138.17C937.698 139.94 972.805 142.33 1008.32 143.61C1024.99 144.21 1041.79 144.55 1058.84 144.5C1167.37 144.18 1278.21 126.57 1357.44 100.59C1436.76 74.58 1487.79 41.11 1515.7 6.02002" stroke="url(#paint9_linear_40_2015)" stroke-width="0.8669" stroke-miterlimit="10"/>
<path opacity="0.54" d="M-181.54 484.3C-222.801 467.29 -203.332 441.23 -155.947 426.21C-151.708 424.87 -147.312 423.6 -142.727 422.4C-96.1593 410.16 -35.0209 404.92 24.9242 401.58C36.4485 400.94 48.067 400.36 59.6855 399.79C114.198 397.12 169.496 394.61 220.241 387.55C236.663 385.27 252.176 382.57 266.84 379.46C366.1 358.4 420.55 319.78 458.106 283.03C460.838 280.36 463.538 277.68 466.207 275C505.93 235.31 550.74 196.18 631.127 168.14C660.173 158.01 689.816 147.56 733.621 142.14C785.684 135.66 846.729 136.97 901.053 140.02C938.106 142.09 973.778 144.87 1009.98 146.5C1027 147.26 1044.12 147.76 1061.58 147.84C1172.64 148.35 1287.04 130.43 1367.9 103.74C1448.85 77.0201 1499.97 42.5601 1527.92 6.58008" stroke="url(#paint10_linear_40_2015)" stroke-width="0.8669" stroke-miterlimit="10"/>
<path opacity="0.54" d="M-174.066 489.64C-215.359 472.65 -196.455 446.66 -149.605 431.49C-145.428 430.13 -141.063 428.85 -136.542 427.64C-90.4445 415.25 -29.6515 409.79 30.0738 406.23C41.5667 405.55 53.1538 404.92 64.7095 404.31C119.034 401.45 174.206 398.78 224.793 391.64C241.154 389.33 256.634 386.62 271.267 383.49C370.307 362.3 424.255 323.69 460.9 286.88C463.569 284.21 466.175 281.52 468.782 278.83C507.343 239.09 550.331 199.93 627.296 171.22C655.902 160.55 685.043 149.43 729.601 143.68C782.607 136.81 845.346 138.35 900.707 141.84C938.451 144.21 974.72 147.38 1011.62 149.36C1028.95 150.29 1046.44 150.94 1064.31 151.15C1177.92 152.49 1295.86 134.26 1378.35 106.87C1460.94 79.4501 1512.15 43.9901 1540.13 7.12012" stroke="url(#paint11_linear_40_2015)" stroke-width="0.8669" stroke-miterlimit="10"/>
<path opacity="0.54" d="M-166.561 494.99C-207.854 478.03 -189.515 452.1 -143.261 436.78C-139.116 435.41 -134.814 434.11 -130.324 432.88C-84.6978 420.34 -24.2503 414.65 35.2866 410.87C46.7481 410.14 58.2724 409.48 69.7967 408.83C123.933 405.78 178.948 402.95 229.378 395.73C245.676 393.4 261.125 390.66 275.695 387.52C374.515 366.21 427.992 327.61 463.695 290.73C466.301 288.05 468.845 285.36 471.357 282.67C508.756 242.87 549.829 203.65 623.465 174.3C651.632 163.08 680.301 151.31 725.613 145.23C779.561 137.96 843.996 139.74 900.425 143.67C938.891 146.34 975.756 149.91 1013.34 152.23C1031.02 153.32 1048.86 154.13 1067.1 154.47C1183.26 156.65 1304.75 138.11 1388.87 110.01C1473.09 81.8799 1524.4 45.4299 1552.38 7.66992" stroke="url(#paint12_linear_40_2015)" stroke-width="0.8669" stroke-miterlimit="10"/>
<path opacity="0.54" d="M-159.056 500.33C-200.38 483.39 -182.607 457.53 -136.887 442.06C-132.805 440.68 -128.534 439.37 -124.107 438.12C-78.9201 425.44 -18.8493 419.52 40.4992 415.52C51.9293 414.75 63.3908 414.04 74.8836 413.36C128.831 410.12 183.721 407.12 233.963 399.83C250.197 397.48 265.584 394.72 280.123 391.56C378.691 370.13 431.728 331.53 466.49 294.59C469.002 291.91 471.482 289.21 473.932 286.52C510.169 246.67 549.264 207.37 619.665 177.4C647.33 165.62 675.56 153.2 721.657 146.79C776.546 139.12 842.678 141.14 900.142 145.52C939.299 148.5 976.761 152.45 1015.04 155.12C1033.03 156.37 1051.21 157.33 1069.87 157.81C1188.56 160.82 1313.6 141.97 1399.36 113.17C1485.21 84.34 1536.62 46.89 1564.63 8.23999" stroke="url(#paint13_linear_40_2015)" stroke-width="0.8669" stroke-miterlimit="10"/>
<path opacity="0.54" d="M-151.583 505.67C-192.907 488.76 -175.73 462.96 -130.575 447.35C-126.556 445.96 -122.317 444.63 -117.952 443.37C-73.2365 430.54 -13.5112 424.39 45.6489 420.17C57.0162 419.36 68.4777 418.61 79.9392 417.88C133.73 414.46 188.462 411.29 238.516 403.92C254.688 401.54 270.043 398.77 284.55 395.6C382.899 374.05 435.465 335.46 469.316 298.45C471.765 295.76 474.183 293.06 476.538 290.37C511.613 250.47 548.667 211.06 615.866 180.49C643.028 168.14 670.818 155.09 717.669 148.35C773.5 140.29 841.296 142.54 899.828 147.36C939.708 150.64 977.735 154.98 1016.74 158C1035.04 159.42 1053.6 160.53 1072.66 161.14C1193.9 164.98 1322.49 145.83 1409.88 116.32C1497.36 86.78 1548.86 48.34 1576.9 8.80005" stroke="url(#paint14_linear_40_2015)" stroke-width="0.8669" stroke-miterlimit="10"/>
<path opacity="0.54" d="M-144.078 511.01C-185.433 494.12 -168.791 468.39 -124.232 452.63C-120.244 451.22 -116.068 449.88 -111.734 448.61C-67.4585 435.63 -8.10995 429.26 50.8304 424.81C62.1662 423.96 73.5649 423.17 84.995 422.4C138.597 418.79 193.173 415.46 243.069 408.01C259.178 405.61 274.471 402.82 288.947 399.63C387.076 377.95 439.171 339.37 472.079 302.3C474.466 299.61 476.789 296.91 479.082 294.2C512.995 254.25 547.882 214.71 612.004 183.57C638.6 170.65 666.014 156.96 713.65 149.89C770.423 141.43 839.914 143.92 899.483 149.18C940.053 152.76 978.677 157.49 1018.37 160.86C1037.02 162.44 1055.89 163.71 1075.36 164.45C1199.15 169.13 1331.28 149.66 1420.31 119.45C1509.42 89.2101 1561.01 49.7701 1589.09 9.34009" stroke="url(#paint15_linear_40_2015)" stroke-width="0.8669" stroke-miterlimit="10"/>
<path opacity="0.54" d="M-136.573 516.36C-177.928 499.5 -161.882 473.82 -117.858 457.92C-113.933 456.5 -109.819 455.15 -105.517 453.86C-61.7121 440.73 -2.70899 434.14 56.0429 429.47C67.3474 428.57 78.7147 427.74 90.082 426.93C143.496 423.13 197.946 419.63 247.654 412.11C263.7 409.68 278.961 406.88 293.374 403.67C391.283 381.87 442.907 343.3 474.874 306.16C477.198 303.46 479.458 300.76 481.657 298.05C514.408 258.05 547.097 218.38 608.173 186.66C634.173 173.16 661.272 158.85 709.662 151.45C767.377 142.59 838.564 145.32 899.2 151.02C940.493 154.9 979.682 160.03 1020.06 163.74C1039.03 165.49 1058.28 166.91 1078.12 167.78C1204.45 173.29 1340.14 153.52 1430.79 122.6C1521.54 91.6499 1573.23 51.2199 1601.33 9.8999" stroke="url(#paint16_linear_40_2015)" stroke-width="0.8669" stroke-miterlimit="10"/>
<path opacity="0.54" d="M-129.068 521.7C-170.424 504.86 -154.974 479.25 -111.515 463.21C-107.621 461.78 -103.57 460.41 -99.2996 459.11C-55.9657 445.84 2.69194 439.01 61.2554 434.12C72.5285 433.18 83.833 432.31 95.1689 431.46C148.394 427.47 202.718 423.81 252.238 416.21C268.222 413.76 283.451 410.94 297.833 407.71C395.523 385.79 446.675 347.23 477.7 310.02C479.961 307.32 482.127 304.61 484.263 301.9C515.852 261.85 546.218 222.04 604.373 189.76C629.745 175.67 656.53 160.74 705.673 153.02C764.331 143.77 837.214 146.73 898.886 152.88C940.869 157.06 980.655 162.58 1021.76 166.64C1041.07 168.55 1060.67 170.13 1080.92 171.13C1209.79 177.48 1349.02 157.39 1441.31 125.77C1533.7 94.12 1585.48 52.69 1613.58 10.48" stroke="url(#paint17_linear_40_2015)" stroke-width="0.8669" stroke-miterlimit="10"/>
<path opacity="0.54" d="M-121.594 527.04C-162.981 510.23 -148.066 484.68 -105.171 468.49C-101.34 467.04 -97.3211 465.66 -93.1133 464.35C-50.2191 450.93 8.06177 443.88 66.4368 438.77C77.6471 437.79 88.9516 436.87 100.225 435.99C153.262 431.81 207.429 427.99 256.823 420.31C272.744 417.84 287.91 414.99 302.261 411.75C399.699 389.7 450.412 351.15 480.495 313.88C482.693 311.17 484.797 308.46 486.838 305.75C517.266 265.65 545.276 225.68 600.542 192.85C625.255 178.17 651.758 162.63 701.686 154.57C761.286 144.92 835.864 148.11 898.572 154.71C941.278 159.2 981.66 165.1 1023.42 169.52C1043.05 171.59 1062.99 173.33 1083.65 174.46C1215.1 181.64 1357.85 161.25 1451.77 128.91C1545.78 96.56 1597.66 54.13 1625.8 11.03" stroke="url(#paint18_linear_40_2015)" stroke-width="0.8669" stroke-miterlimit="10"/>
<path opacity="0.54" d="M-114.089 532.38C-155.476 515.59 -141.157 490.11 -98.8284 473.77C-95.0602 472.31 -91.0723 470.92 -86.9273 469.59C-44.5041 456.02 13.4313 448.74 71.618 443.41C82.7969 442.39 94.0385 441.43 105.312 440.5C158.16 436.14 212.202 432.14 261.408 424.38C277.265 421.88 292.401 419.02 306.688 415.77C403.907 393.6 454.118 355.06 483.321 317.72C485.425 315.01 487.497 312.29 489.475 309.57C518.742 269.42 544.302 229.3 596.774 195.92C620.764 180.65 647.047 164.49 697.761 156.11C758.302 146.06 834.576 149.49 898.321 156.53C941.749 161.32 982.696 167.61 1025.15 172.38C1045.12 174.62 1065.41 176.51 1086.48 177.77C1220.47 185.78 1366.77 165.08 1462.32 132.04C1557.97 98.9801 1609.97 55.5601 1638.1 11.5701" stroke="url(#paint19_linear_40_2015)" stroke-width="0.8669" stroke-miterlimit="10"/>
<path opacity="0.54" d="M-106.585 537.73C-148.003 520.97 -134.249 495.55 -92.4855 479.06C-88.7487 477.59 -84.8236 476.18 -80.71 474.84C-38.7264 461.13 18.8322 453.62 76.7991 448.06C87.9465 446.99 99.1568 446 110.367 445.03C163.027 440.48 216.943 436.32 265.961 428.48C281.756 425.96 296.828 423.08 311.084 419.81C408.083 397.52 457.823 358.98 486.084 321.58C488.125 318.86 490.103 316.14 492.019 313.42C520.092 273.22 543.172 232.95 592.911 199.02C616.18 183.16 642.274 166.39 693.71 157.67C755.193 147.23 833.163 150.89 897.975 158.38C942.094 163.47 983.638 170.15 1026.81 175.27C1047.1 177.67 1067.76 179.72 1089.21 181.11C1225.74 189.96 1375.59 168.95 1472.78 135.2C1570.06 101.44 1622.15 57.0099 1650.32 12.1399" stroke="url(#paint20_linear_40_2015)" stroke-width="0.8669" stroke-miterlimit="10"/>
<path opacity="0.54" d="M-99.0797 543.07C-140.498 526.33 -127.309 500.97 -86.1109 484.35C-82.437 482.87 -78.5432 481.44 -74.4924 480.09C-32.9799 466.23 24.2333 458.49 82.0118 452.72C93.1279 451.61 104.275 450.57 115.454 449.56C167.957 444.82 221.685 440.5 270.545 432.58C286.277 430.03 301.319 427.14 315.543 423.85C412.322 401.43 461.591 362.91 488.91 325.44C490.888 322.72 492.804 319.99 494.625 317.27C521.536 277.01 542.041 236.59 589.112 202.11C611.595 185.65 637.533 168.27 689.753 159.23C752.179 148.39 831.844 152.29 897.693 160.22C942.534 165.61 984.643 172.69 1028.51 178.15C1049.11 180.71 1070.12 182.92 1091.97 184.44C1231.05 194.12 1384.41 172.8 1483.26 138.35C1582.18 103.88 1634.37 58.4599 1662.57 12.7" stroke="url(#paint21_linear_40_2015)" stroke-width="0.8669" stroke-miterlimit="10"/>
<path opacity="0.54" d="M-91.6062 548.41C-133.056 531.7 -120.433 506.4 -79.7993 489.63C-76.1567 488.13 -72.3257 486.7 -68.3378 485.33C-27.2962 471.32 29.5716 463.36 87.1616 457.36C98.2149 456.21 109.362 455.13 120.478 454.08C172.793 449.15 226.395 444.67 275.067 436.67C290.736 434.1 305.746 431.19 319.908 427.88C416.467 405.34 465.265 366.82 491.642 329.29C493.558 326.56 495.379 323.83 497.137 321.11C522.886 280.8 540.722 240.23 585.218 205.2C606.885 188.15 632.697 170.16 685.702 160.78C749.102 149.54 830.431 153.68 897.316 162.05C942.848 167.75 985.554 175.21 1030.14 181.02C1051.09 183.75 1072.44 186.11 1094.7 187.76C1236.32 198.27 1393.24 176.65 1493.72 141.49C1594.27 106.32 1646.55 59.9 1674.75 13.25" stroke="url(#paint22_linear_40_2015)" stroke-width="0.8669" stroke-miterlimit="10"/>
<path opacity="0.54" d="M-84.1014 553.75C-125.551 537.06 -113.524 511.83 -73.4249 494.91C-69.8451 493.4 -66.077 491.95 -62.089 490.57C-21.4871 476.41 35.0039 468.22 92.4055 462.01C103.427 460.82 114.512 459.69 125.597 458.61C177.723 453.5 231.199 448.84 279.683 440.77C295.289 438.17 310.237 435.25 324.367 431.92C420.675 409.26 469.033 370.75 494.468 333.15C496.321 330.42 498.079 327.68 499.744 324.95C524.331 284.59 539.498 243.88 581.418 208.28C602.206 190.63 627.955 172.03 681.714 162.33C746.056 150.7 829.081 155.07 897.033 163.88C943.287 169.88 986.558 177.73 1031.84 183.89C1053.1 186.78 1074.8 189.29 1097.47 191.08C1241.63 202.43 1402.09 180.49 1504.21 144.63C1606.36 108.75 1658.77 61.34 1687 13.8" stroke="url(#paint23_linear_40_2015)" stroke-width="0.8669" stroke-miterlimit="10"/>
<path opacity="0.54" d="M-76.5964 559.1C-118.078 542.44 -106.585 517.27 -67.0818 500.21C-63.5649 498.69 -59.8281 497.22 -55.903 495.83C-15.7721 481.53 40.3735 473.11 97.5553 466.67C108.546 465.44 119.599 464.27 130.652 463.14C182.59 457.84 235.91 453.02 284.236 444.87C299.78 442.25 314.695 439.31 328.795 435.96C424.883 413.17 472.77 374.68 497.263 337.01C499.053 334.27 500.717 331.53 502.318 328.8C525.744 288.39 538.147 247.54 577.619 211.38C597.527 193.14 623.245 173.92 677.758 163.89C743.041 151.86 827.762 156.47 896.751 165.73C943.696 172.03 987.563 180.27 1033.53 186.78C1055.14 189.84 1077.18 192.5 1100.26 194.42C1246.97 206.6 1410.98 184.36 1514.73 147.79C1618.51 111.21 1671.01 62.8001 1699.27 14.3701" stroke="url(#paint24_linear_40_2015)" stroke-width="0.8669" stroke-miterlimit="10"/>
<path opacity="0.54" d="M-69.0914 564.44C-110.573 547.8 -99.6763 522.7 -60.7073 505.49C-57.2217 503.95 -53.5478 502.48 -49.654 501.06C-9.96273 486.61 45.806 477.96 102.799 471.3C113.727 470.02 124.749 468.82 135.771 467.65C187.52 462.16 240.714 457.18 288.884 448.95C304.365 446.31 319.217 443.34 333.285 439.99C429.154 417.08 476.569 378.59 500.152 340.86C501.879 338.12 503.48 335.38 504.988 332.64C527.251 292.18 536.86 251.2 573.882 214.46C592.849 195.62 618.566 175.8 673.864 165.44C740.09 153.01 826.506 157.86 896.531 167.56C944.198 174.16 988.663 182.8 1035.32 189.65C1057.24 192.87 1079.66 195.69 1103.12 197.74C1252.37 210.76 1419.93 188.2 1525.34 150.92C1630.76 113.64 1683.35 64.2299 1711.65 14.9099" stroke="url(#paint25_linear_40_2015)" stroke-width="0.8669" stroke-miterlimit="10"/>
<path opacity="0.54" d="M-61.6179 569.78C-103.13 553.17 -92.768 528.12 -54.3956 510.77C-50.9728 509.22 -47.3303 507.73 -43.4994 506.3C-4.27909 491.7 51.1442 482.83 107.949 475.95C118.846 474.63 129.836 473.38 140.795 472.18C192.356 466.5 245.424 461.35 293.406 453.05C308.824 450.38 323.645 447.4 337.65 444.03C433.298 421 480.243 382.52 502.884 344.72C504.517 341.97 506.055 339.23 507.5 336.48C528.602 295.97 535.384 254.87 569.988 217.55C588.013 198.12 613.73 177.68 669.782 166.99C736.949 154.17 825.061 159.25 896.123 169.39C944.481 176.29 989.542 185.32 1036.89 192.52C1059.13 195.9 1081.89 198.88 1105.76 201.06C1257.55 214.91 1428.66 192.04 1535.7 154.06C1642.75 116.07 1695.44 65.67 1723.77 15.46" stroke="url(#paint26_linear_40_2015)" stroke-width="0.8669" stroke-miterlimit="10"/>
<path opacity="0.54" d="M-54.113 575.12C-95.6256 558.53 -85.8598 533.55 -48.0526 516.05C-44.6612 514.49 -41.0815 512.98 -37.3133 511.54C1.46733 496.8 56.5139 487.7 113.13 480.59C123.995 479.23 134.923 477.94 145.851 476.69C197.223 470.82 250.134 465.51 297.959 457.13C313.314 454.44 328.104 451.44 342.078 448.05C437.506 424.9 483.949 386.42 505.678 348.56C507.249 345.81 508.724 343.06 510.075 340.31C530.014 299.75 533.908 258.54 566.157 220.62C583.177 200.6 608.989 179.55 665.794 168.53C733.903 155.31 823.711 160.62 895.84 171.22C944.92 178.43 990.546 187.84 1038.62 195.39C1061.2 198.94 1084.31 202.07 1108.58 204.38C1262.92 219.06 1437.58 195.89 1546.26 157.2C1654.94 118.51 1707.72 67.11 1736.08 16.01" stroke="url(#paint27_linear_40_2015)" stroke-width="0.8669" stroke-miterlimit="10"/>
<path opacity="0.54" d="M-46.6081 580.47C-88.1521 563.91 -78.9515 538.99 -41.6781 521.35C-38.3496 519.78 -34.8012 518.26 -31.0644 516.8C7.24518 501.91 61.9463 492.58 118.374 485.26C129.208 483.86 140.104 482.52 150.969 481.24C202.185 475.19 254.939 469.71 302.575 461.25C317.867 458.53 332.594 455.52 346.537 452.11C441.714 428.83 487.717 390.37 508.505 352.44C510.012 349.68 511.394 346.93 512.681 344.18C531.459 303.57 532.432 262.26 562.358 223.74C578.373 203.13 604.247 181.46 661.837 170.11C730.889 156.49 822.392 162.04 895.557 173.08C945.36 180.59 991.551 190.39 1040.32 198.29C1063.21 202 1086.7 205.29 1111.35 207.73C1268.23 223.25 1446.43 199.76 1556.74 160.37C1667.06 120.97 1719.94 68.5801 1748.29 16.5901" stroke="url(#paint28_linear_40_2015)" stroke-width="0.8669" stroke-miterlimit="10"/>
<path opacity="0.54" d="M-39.1346 585.81C-80.6785 569.27 -72.0432 544.42 -35.3664 526.63C-32.1007 525.04 -28.5837 523.51 -24.9098 522.04C12.9288 507 67.2846 497.45 123.493 489.9C134.264 488.45 145.128 487.08 155.993 485.75C207.02 479.51 259.649 473.86 307.097 465.33C322.326 462.59 337.022 459.56 350.901 456.13C445.859 432.73 491.391 394.27 511.236 356.28C512.681 353.52 514 350.76 515.193 348.01C532.809 307.35 530.831 265.95 558.464 226.81C573.411 205.62 599.411 183.33 657.755 171.65C727.749 157.64 820.948 163.42 895.149 174.9C945.642 182.71 992.43 192.9 1041.89 201.16C1065.12 205.03 1088.93 208.48 1113.99 211.05C1273.41 227.4 1455.16 203.61 1567.11 163.51C1679.05 123.41 1732.03 70.0199 1760.41 17.1399" stroke="url(#paint29_linear_40_2015)" stroke-width="0.8669" stroke-miterlimit="10"/>
<path opacity="0.54" d="M-31.6297 591.15C-73.1737 574.64 -65.1349 549.85 -28.992 531.91C-25.7577 530.31 -22.3349 528.76 -18.661 527.28C18.738 512.09 72.7169 502.31 128.737 494.55C139.476 493.06 150.31 491.65 161.112 490.28C211.95 483.85 264.422 478.04 311.712 469.43C326.911 466.67 341.512 463.62 355.392 460.18C450.13 436.66 495.19 398.21 514.125 360.15C515.507 357.38 516.732 354.62 517.862 351.86C534.316 311.14 529.386 269.67 554.727 229.91C568.607 208.14 594.733 185.22 653.861 173.21C724.797 158.8 819.692 164.82 894.929 176.74C946.145 184.85 993.498 195.44 1043.68 204.04C1067.23 208.08 1091.41 211.68 1116.87 214.38C1278.84 231.56 1464.14 207.46 1577.72 166.66C1691.3 125.85 1744.4 71.47 1772.78 17.7" stroke="url(#paint30_linear_40_2015)" stroke-width="0.8669" stroke-miterlimit="10"/>
<path opacity="0.54" d="M-24.1248 596.49C-69.4055 578.53 -56.4995 550.8 -12.4749 532.52C31.5498 514.25 99.251 503.54 166.167 494.8C233.083 486.06 302.951 478.43 359.819 464.21C461.183 438.85 505.145 396.46 520.406 355.7C535.698 314.93 527.754 273.39 550.865 233C563.645 210.65 589.96 187.11 649.842 174.77C721.72 159.96 818.31 166.22 894.615 178.59C970.921 190.96 1038.65 208.85 1119.61 217.72C1284.12 235.74 1472.96 211.33 1588.18 169.82C1703.39 128.31 1756.58 72.93 1785 18.27" stroke="url(#paint31_linear_40_2015)" stroke-width="0.8669" stroke-miterlimit="10"/>
</g>
<defs>
<linearGradient id="paint0_linear_40_2015" x1="1362.62" y1="-14.7259" x2="1035.95" y2="895.42" gradientUnits="userSpaceOnUse">
<stop stop-color="#7ED4EF"/>
<stop offset="0.2294" stop-color="#66BFE6"/>
<stop offset="0.711" stop-color="#298BD0"/>
<stop offset="1" stop-color="#0169C2"/>
</linearGradient>
<linearGradient id="paint1_linear_40_2015" x1="1378.94" y1="-12.7095" x2="1050.21" y2="903.189" gradientUnits="userSpaceOnUse">
<stop stop-color="#7ED4EF"/>
<stop offset="0.2294" stop-color="#66BFE6"/>
<stop offset="0.711" stop-color="#298BD0"/>
<stop offset="1" stop-color="#0169C2"/>
</linearGradient>
<linearGradient id="paint2_linear_40_2015" x1="1395.26" y1="-10.6942" x2="1064.46" y2="910.957" gradientUnits="userSpaceOnUse">
<stop stop-color="#7ED4EF"/>
<stop offset="0.2294" stop-color="#66BFE6"/>
<stop offset="0.711" stop-color="#298BD0"/>
<stop offset="1" stop-color="#0169C2"/>
</linearGradient>
<linearGradient id="paint3_linear_40_2015" x1="1410.29" y1="-9.13957" x2="1077.43" y2="918.264" gradientUnits="userSpaceOnUse">
<stop stop-color="#7ED4EF"/>
<stop offset="0.2294" stop-color="#66BFE6"/>
<stop offset="0.711" stop-color="#298BD0"/>
<stop offset="1" stop-color="#0169C2"/>
</linearGradient>
<linearGradient id="paint4_linear_40_2015" x1="1423.13" y1="-8.37224" x2="1088.21" y2="924.783" gradientUnits="userSpaceOnUse">
<stop stop-color="#7ED4EF"/>
<stop offset="0.2294" stop-color="#66BFE6"/>
<stop offset="0.711" stop-color="#298BD0"/>
<stop offset="1" stop-color="#0169C2"/>
</linearGradient>
<linearGradient id="paint5_linear_40_2015" x1="1435.84" y1="-7.65144" x2="1098.85" y2="931.256" gradientUnits="userSpaceOnUse">
<stop stop-color="#7ED4EF"/>
<stop offset="0.2294" stop-color="#66BFE6"/>
<stop offset="0.711" stop-color="#298BD0"/>
<stop offset="1" stop-color="#0169C2"/>
</linearGradient>
<linearGradient id="paint6_linear_40_2015" x1="1448.41" y1="-6.98059" x2="1109.36" y2="937.679" gradientUnits="userSpaceOnUse">
<stop stop-color="#7ED4EF"/>
<stop offset="0.2294" stop-color="#66BFE6"/>
<stop offset="0.711" stop-color="#298BD0"/>
<stop offset="1" stop-color="#0169C2"/>
</linearGradient>
<linearGradient id="paint7_linear_40_2015" x1="1460.83" y1="-6.36352" x2="1119.71" y2="944.047" gradientUnits="userSpaceOnUse">
<stop stop-color="#7ED4EF"/>
<stop offset="0.2294" stop-color="#66BFE6"/>
<stop offset="0.711" stop-color="#298BD0"/>
<stop offset="1" stop-color="#0169C2"/>
</linearGradient>
<linearGradient id="paint8_linear_40_2015" x1="1472.93" y1="-5.86213" x2="1129.75" y2="950.3" gradientUnits="userSpaceOnUse">
<stop stop-color="#7ED4EF"/>
<stop offset="0.2294" stop-color="#66BFE6"/>
<stop offset="0.711" stop-color="#298BD0"/>
<stop offset="1" stop-color="#0169C2"/>
</linearGradient>
<linearGradient id="paint9_linear_40_2015" x1="1484.76" y1="-5.45491" x2="1139.51" y2="956.458" gradientUnits="userSpaceOnUse">
<stop stop-color="#7ED4EF"/>
<stop offset="0.2294" stop-color="#66BFE6"/>
<stop offset="0.711" stop-color="#298BD0"/>
<stop offset="1" stop-color="#0169C2"/>
</linearGradient>
<linearGradient id="paint10_linear_40_2015" x1="1496.44" y1="-5.10527" x2="1149.12" y2="962.559" gradientUnits="userSpaceOnUse">
<stop stop-color="#7ED4EF"/>
<stop offset="0.2294" stop-color="#66BFE6"/>
<stop offset="0.711" stop-color="#298BD0"/>
<stop offset="1" stop-color="#0169C2"/>
</linearGradient>
<linearGradient id="paint11_linear_40_2015" x1="1508" y1="-4.79522" x2="1158.62" y2="968.62" gradientUnits="userSpaceOnUse">
<stop stop-color="#7ED4EF"/>
<stop offset="0.2294" stop-color="#66BFE6"/>
<stop offset="0.711" stop-color="#298BD0"/>
<stop offset="1" stop-color="#0169C2"/>
</linearGradient>
<linearGradient id="paint12_linear_40_2015" x1="1519.48" y1="-4.51427" x2="1168.04" y2="974.651" gradientUnits="userSpaceOnUse">
<stop stop-color="#7ED4EF"/>
<stop offset="0.2294" stop-color="#66BFE6"/>
<stop offset="0.711" stop-color="#298BD0"/>
<stop offset="1" stop-color="#0169C2"/>
</linearGradient>
<linearGradient id="paint13_linear_40_2015" x1="1530.9" y1="-4.25453" x2="1177.4" y2="980.662" gradientUnits="userSpaceOnUse">
<stop stop-color="#7ED4EF"/>
<stop offset="0.2294" stop-color="#66BFE6"/>
<stop offset="0.711" stop-color="#298BD0"/>
<stop offset="1" stop-color="#0169C2"/>
</linearGradient>
<linearGradient id="paint14_linear_40_2015" x1="1542.27" y1="-4.01139" x2="1186.71" y2="986.655" gradientUnits="userSpaceOnUse">
<stop stop-color="#7ED4EF"/>
<stop offset="0.2294" stop-color="#66BFE6"/>
<stop offset="0.711" stop-color="#298BD0"/>
<stop offset="1" stop-color="#0169C2"/>
</linearGradient>
<linearGradient id="paint15_linear_40_2015" x1="1553.61" y1="-3.78139" x2="1195.98" y2="992.635" gradientUnits="userSpaceOnUse">
<stop stop-color="#7ED4EF"/>
<stop offset="0.2294" stop-color="#66BFE6"/>
<stop offset="0.711" stop-color="#298BD0"/>
<stop offset="1" stop-color="#0169C2"/>
</linearGradient>
<linearGradient id="paint16_linear_40_2015" x1="1564.92" y1="-3.56197" x2="1205.22" y2="998.605" gradientUnits="userSpaceOnUse">
<stop stop-color="#7ED4EF"/>
<stop offset="0.2294" stop-color="#66BFE6"/>
<stop offset="0.711" stop-color="#298BD0"/>
<stop offset="1" stop-color="#0169C2"/>
</linearGradient>
<linearGradient id="paint17_linear_40_2015" x1="1576.2" y1="-3.35083" x2="1214.44" y2="1004.57" gradientUnits="userSpaceOnUse">
<stop stop-color="#7ED4EF"/>
<stop offset="0.2294" stop-color="#66BFE6"/>
<stop offset="0.711" stop-color="#298BD0"/>
<stop offset="1" stop-color="#0169C2"/>
</linearGradient>
<linearGradient id="paint18_linear_40_2015" x1="1587.47" y1="-3.14676" x2="1223.65" y2="1010.52" gradientUnits="userSpaceOnUse">
<stop stop-color="#7ED4EF"/>
<stop offset="0.2294" stop-color="#66BFE6"/>
<stop offset="0.711" stop-color="#298BD0"/>
<stop offset="1" stop-color="#0169C2"/>
</linearGradient>
<linearGradient id="paint19_linear_40_2015" x1="1598.72" y1="-2.9484" x2="1232.83" y2="1016.47" gradientUnits="userSpaceOnUse">
<stop stop-color="#7ED4EF"/>
<stop offset="0.2294" stop-color="#66BFE6"/>
<stop offset="0.711" stop-color="#298BD0"/>
<stop offset="1" stop-color="#0169C2"/>
</linearGradient>
<linearGradient id="paint20_linear_40_2015" x1="1609.95" y1="-2.75503" x2="1242" y2="1022.41" gradientUnits="userSpaceOnUse">
<stop stop-color="#7ED4EF"/>
<stop offset="0.2294" stop-color="#66BFE6"/>
<stop offset="0.711" stop-color="#298BD0"/>
<stop offset="1" stop-color="#0169C2"/>
</linearGradient>
<linearGradient id="paint21_linear_40_2015" x1="1621.17" y1="-2.56573" x2="1251.16" y2="1028.35" gradientUnits="userSpaceOnUse">
<stop stop-color="#7ED4EF"/>
<stop offset="0.2294" stop-color="#66BFE6"/>
<stop offset="0.711" stop-color="#298BD0"/>
<stop offset="1" stop-color="#0169C2"/>
</linearGradient>
<linearGradient id="paint22_linear_40_2015" x1="1632.39" y1="-2.3799" x2="1260.31" y2="1034.29" gradientUnits="userSpaceOnUse">
<stop stop-color="#7ED4EF"/>
<stop offset="0.2294" stop-color="#66BFE6"/>
<stop offset="0.711" stop-color="#298BD0"/>
<stop offset="1" stop-color="#0169C2"/>
</linearGradient>
<linearGradient id="paint23_linear_40_2015" x1="1643.59" y1="-2.19716" x2="1269.45" y2="1040.22" gradientUnits="userSpaceOnUse">
<stop stop-color="#7ED4EF"/>
<stop offset="0.2294" stop-color="#66BFE6"/>
<stop offset="0.711" stop-color="#298BD0"/>
<stop offset="1" stop-color="#0169C2"/>
</linearGradient>
<linearGradient id="paint24_linear_40_2015" x1="1654.79" y1="-2.01704" x2="1278.58" y2="1046.15" gradientUnits="userSpaceOnUse">
<stop stop-color="#7ED4EF"/>
<stop offset="0.2294" stop-color="#66BFE6"/>
<stop offset="0.711" stop-color="#298BD0"/>
<stop offset="1" stop-color="#0169C2"/>
</linearGradient>
<linearGradient id="paint25_linear_40_2015" x1="1665.98" y1="-1.83951" x2="1287.71" y2="1052.08" gradientUnits="userSpaceOnUse">
<stop stop-color="#7ED4EF"/>
<stop offset="0.2294" stop-color="#66BFE6"/>
<stop offset="0.711" stop-color="#298BD0"/>
<stop offset="1" stop-color="#0169C2"/>
</linearGradient>
<linearGradient id="paint26_linear_40_2015" x1="1677.16" y1="-1.66372" x2="1296.83" y2="1058" gradientUnits="userSpaceOnUse">
<stop stop-color="#7ED4EF"/>
<stop offset="0.2294" stop-color="#66BFE6"/>
<stop offset="0.711" stop-color="#298BD0"/>
<stop offset="1" stop-color="#0169C2"/>
</linearGradient>
<linearGradient id="paint27_linear_40_2015" x1="1688.34" y1="-1.48996" x2="1305.94" y2="1063.93" gradientUnits="userSpaceOnUse">
<stop stop-color="#7ED4EF"/>
<stop offset="0.2294" stop-color="#66BFE6"/>
<stop offset="0.711" stop-color="#298BD0"/>
<stop offset="1" stop-color="#0169C2"/>
</linearGradient>
<linearGradient id="paint28_linear_40_2015" x1="1699.51" y1="-1.31764" x2="1315.05" y2="1069.85" gradientUnits="userSpaceOnUse">
<stop stop-color="#7ED4EF"/>
<stop offset="0.2294" stop-color="#66BFE6"/>
<stop offset="0.711" stop-color="#298BD0"/>
<stop offset="1" stop-color="#0169C2"/>
</linearGradient>
<linearGradient id="paint29_linear_40_2015" x1="1710.68" y1="-1.14698" x2="1324.16" y2="1075.77" gradientUnits="userSpaceOnUse">
<stop stop-color="#7ED4EF"/>
<stop offset="0.2294" stop-color="#66BFE6"/>
<stop offset="0.711" stop-color="#298BD0"/>
<stop offset="1" stop-color="#0169C2"/>
</linearGradient>
<linearGradient id="paint30_linear_40_2015" x1="1721.85" y1="-0.977495" x2="1333.26" y2="1081.69" gradientUnits="userSpaceOnUse">
<stop stop-color="#7ED4EF"/>
<stop offset="0.2294" stop-color="#66BFE6"/>
<stop offset="0.711" stop-color="#298BD0"/>
<stop offset="1" stop-color="#0169C2"/>
</linearGradient>
<linearGradient id="paint31_linear_40_2015" x1="1733.01" y1="-0.80914" x2="1342.36" y2="1087.6" gradientUnits="userSpaceOnUse">
<stop stop-color="#7ED4EF"/>
<stop offset="0.2294" stop-color="#66BFE6"/>
<stop offset="0.711" stop-color="#298BD0"/>
<stop offset="1" stop-color="#0169C2"/>
</linearGradient>
</defs>
</svg>
