<svg width="1512" height="476" viewBox="0 0 1512 476" fill="none" xmlns="http://www.w3.org/2000/svg">
<g opacity="0.4">
<path d="M535.026 279.252C336.786 363.723 110.252 406.525 29.0486 374.852C-52.1548 343.179 42.7223 249.026 240.962 164.554C439.202 80.0832 665.736 37.2817 746.939 68.9547C828.143 100.628 733.266 194.781 535.026 279.252Z" fill="#E0848D"/>
<path d="M1456.91 1.13332C1329.03 22.9298 806.409 209.516 423.384 181.12C40.3575 152.724 831.008 535.885 1172.78 467.189C1511.72 399.067 1584.79 -20.6735 1456.91 1.13332Z" fill="#6E6EE7"/>
<path d="M407.385 394.305C489.489 381.848 825.521 274.463 1070.95 291.408C1316.38 308.352 811.424 85.4074 591.947 124.749C374.288 163.762 325.283 406.769 407.385 394.305Z" fill="#7A2CC9"/>
</g>
</svg>
