<svg width="1512" height="476" viewBox="0 0 1512 476" fill="none" xmlns="http://www.w3.org/2000/svg">
<g opacity="0.4">
<path d="M980.974 196.748C1179.21 112.277 1405.75 69.4751 1486.95 101.148C1568.15 132.821 1473.28 226.974 1275.04 311.446C1076.8 395.917 850.264 438.718 769.061 407.045C687.857 375.372 782.734 281.219 980.974 196.748Z" fill="#E0848D"/>
<path d="M59.0901 474.867C186.973 453.07 709.591 266.484 1092.62 294.88C1475.64 323.276 684.993 -59.8848 343.223 8.81097C4.28361 76.9332 -68.7918 496.673 59.0901 474.867Z" fill="#6E6EE7"/>
<path d="M1108.61 81.6944C1026.51 94.1518 690.479 201.537 445.049 184.592C199.619 167.648 704.576 390.592 924.053 351.251C1141.71 312.237 1190.72 69.231 1108.61 81.6944Z" fill="#7A2CC9"/>
</g>
</svg>
