<svg width="64" height="50" viewBox="0 0 64 50" fill="none" xmlns="http://www.w3.org/2000/svg">
<g clip-path="url(#clip0_45_2106)">
<path d="M54.1787 4.4525C50.0996 2.56486 45.7253 1.17414 41.1517 0.377609C41.0684 0.362236 40.9852 0.400653 40.9423 0.47749C40.3798 1.48659 39.7566 2.80305 39.3202 3.83777C34.4011 3.09505 29.5072 3.09505 24.6889 3.83777C24.2524 2.78005 23.6066 1.48659 23.0415 0.47749C22.9986 0.403217 22.9154 0.3648 22.8321 0.377609C18.2611 1.17159 13.8868 2.56232 9.80516 4.4525C9.76982 4.46786 9.73954 4.4935 9.71944 4.52677C1.42238 17.028 -0.850534 29.222 0.26448 41.2649C0.269526 41.3238 0.30232 41.3801 0.347728 41.416C5.82189 45.4703 11.1246 47.9317 16.3287 49.5631C16.412 49.5888 16.5003 49.558 16.5533 49.4889C17.7843 47.7934 18.8817 46.0057 19.8226 44.1257C19.8781 44.0156 19.8251 43.885 19.7116 43.8414C17.971 43.1755 16.3136 42.3636 14.7193 41.4416C14.5932 41.3673 14.5831 41.1854 14.6991 41.0983C15.0346 40.8448 15.3702 40.581 15.6905 40.3146C15.7485 40.266 15.8293 40.2557 15.8974 40.2864C26.3714 45.1092 37.7108 45.1092 48.0612 40.2864C48.1294 40.2531 48.2101 40.2634 48.2706 40.312C48.5911 40.5784 48.9266 40.8448 49.2646 41.0983C49.3806 41.1854 49.373 41.3673 49.2469 41.4416C47.6526 42.3815 45.9952 43.1755 44.252 43.8389C44.1385 43.8824 44.0881 44.0156 44.1436 44.1257C45.1047 46.003 46.2021 47.7908 47.4104 49.4863C47.4609 49.558 47.5516 49.5888 47.6349 49.5631C52.8644 47.9317 58.167 45.4703 63.6411 41.416C63.6891 41.3801 63.7194 41.3263 63.7244 41.2674C65.0589 27.3446 61.4893 15.2506 54.2619 4.52932C54.2442 4.4935 54.214 4.46786 54.1787 4.4525ZM21.3867 33.932C18.2333 33.932 15.635 31.0123 15.635 27.4266C15.635 23.8409 18.1829 20.9211 21.3867 20.9211C24.6157 20.9211 27.1888 23.8665 27.1383 27.4266C27.1383 31.0123 24.5904 33.932 21.3867 33.932ZM42.6527 33.932C39.4994 33.932 36.901 31.0123 36.901 27.4266C36.901 23.8409 39.4489 20.9211 42.6527 20.9211C45.8817 20.9211 48.4548 23.8665 48.4044 27.4266C48.4044 31.0123 45.8817 33.932 42.6527 33.932Z" fill="#F0F0F0"/>
</g>
<defs>
<clipPath id="clip0_45_2106">
<rect width="64" height="50" fill="white"/>
</clipPath>
</defs>
</svg>
