<svg width="50" height="50" viewBox="0 0 50 50" fill="none" xmlns="http://www.w3.org/2000/svg">
<g clip-path="url(#clip0_45_2100)">
<path d="M10.3915 23.8055C10.3914 23.5263 10.4465 23.2498 10.5536 22.9919C10.6607 22.7341 10.8176 22.4999 11.0155 22.3029C11.2133 22.1059 11.448 21.95 11.7063 21.844C11.9645 21.738 12.2412 21.6841 12.5203 21.6854L16.0497 21.697C16.6125 21.697 17.1522 21.9207 17.5501 22.3187C17.948 22.7168 18.1716 23.2567 18.1716 23.8197V37.1705C18.5691 37.0527 19.0791 36.927 19.6377 36.7959C20.0255 36.7046 20.3712 36.4849 20.6186 36.1725C20.866 35.8601 21.0007 35.4732 21.0008 35.0746V18.514C21.0007 17.951 21.2242 17.411 21.6222 17.0128C22.0201 16.6147 22.5598 16.3909 23.1226 16.3908H26.6592C27.222 16.391 27.7617 16.6147 28.1596 17.0129C28.5575 17.411 28.781 17.951 28.781 18.514V33.8845C28.781 33.8845 29.6661 33.5259 30.5288 33.1617C30.8492 33.0261 31.1225 32.7992 31.3148 32.5092C31.5071 32.2193 31.6098 31.8791 31.6101 31.5311V13.2065C31.6101 12.9277 31.6649 12.6517 31.7715 12.3942C31.8781 12.1367 32.0344 11.9027 32.2314 11.7056C32.4284 11.5085 32.6623 11.3521 32.9197 11.2454C33.1771 11.1388 33.453 11.0838 33.7316 11.0838H37.2681C37.8309 11.0838 38.3706 11.3074 38.7686 11.7055C39.1665 12.1036 39.3901 12.6435 39.3902 13.2065V28.2958C42.4561 26.0731 45.5634 23.3995 48.0293 20.1848C48.387 19.7181 48.6238 19.1702 48.7183 18.5897C48.8129 18.0093 48.7624 17.4145 48.5714 16.8584C46.9029 11.9942 43.7733 7.76434 39.6106 4.74705C35.4478 1.72977 30.4549 0.0723918 25.3148 0.00153406C11.454 -0.184731 -0.00118562 11.134 0.000175963 25.0016C-0.0134336 29.3898 1.13144 33.7037 3.31904 37.5073C3.62073 38.0275 4.06456 38.4508 4.5984 38.7275C5.13224 39.0041 5.73391 39.1226 6.33274 39.0691C7.00179 39.0102 7.83474 38.9269 8.82496 38.8106C9.25595 38.7616 9.65386 38.5556 9.94288 38.2321C10.2319 37.9085 10.3919 37.4899 10.3923 37.0559V23.8055" fill="#F0F0F0"/>
<path d="M10.7649 45.2172C14.4926 47.93 18.8978 49.5583 23.4931 49.922C28.0884 50.2857 32.6948 49.3707 36.8025 47.2781C40.9103 45.1855 44.3593 41.9969 46.768 38.0651C49.1767 34.1334 50.4511 29.6116 50.4504 25.0003C50.4504 24.4246 50.4237 23.8554 50.3852 23.2893C41.2554 36.9102 24.3983 43.2788 10.7648 45.2177" fill="#BFCFDA"/>
</g>
<defs>
<clipPath id="clip0_45_2100">
<rect width="50" height="50" fill="white"/>
</clipPath>
</defs>
</svg>
