<svg width="55" height="50" viewBox="0 0 55 50" fill="none" xmlns="http://www.w3.org/2000/svg">
<g clip-path="url(#clip0_45_2078)">
<path d="M3.2011 28.512L3.3952 28.2069L15.1015 9.8939C15.2726 9.6257 15.6748 9.65351 15.8043 9.94471C17.7599 14.3277 19.4475 19.7786 18.6569 23.1721C18.3194 24.5683 17.3947 26.4593 16.3544 28.2069C16.2204 28.4612 16.0724 28.7109 15.9152 28.9513C15.8413 29.0622 15.7164 29.127 15.5823 29.127H3.5432C3.2195 29.127 3.03 28.7756 3.2011 28.512Z" fill="#F0F0F0"/>
<path d="M55.38 31.9149V34.8137C55.38 34.9801 55.2783 35.1281 55.1303 35.1928C54.2242 35.5812 51.1219 37.0052 49.832 38.799C46.5402 43.3807 44.0251 49.932 38.4031 49.932H14.9489C6.6362 49.932 -0.0999985 43.1727 -0.0999985 34.8322V34.564C-0.0999985 34.3421 0.0803022 34.1618 0.302202 34.1618H13.377C13.6359 34.1618 13.8255 34.4022 13.8024 34.6565C13.7099 35.5072 13.8671 36.3764 14.2693 37.167C15.046 38.7435 16.655 39.7283 18.3933 39.7283H24.866V34.675H18.4673C18.139 34.675 17.9449 34.2959 18.1344 34.0277C18.2038 33.9214 18.2824 33.8104 18.3656 33.6856C18.9712 32.8257 19.8358 31.4895 20.6957 29.9684C21.2829 28.9421 21.8516 27.8463 22.3093 26.746C22.4018 26.5472 22.4757 26.3438 22.5497 26.1449C22.6745 25.7936 22.804 25.4653 22.8964 25.1371C22.9889 24.8597 23.0629 24.5684 23.1369 24.2956C23.3542 23.3617 23.4466 22.3723 23.4466 21.3459C23.4466 20.9437 23.4281 20.523 23.3911 20.1207C23.3727 19.6815 23.3172 19.2423 23.2617 18.8031C23.2247 18.4147 23.1554 18.031 23.0814 17.6288C22.9889 17.0416 22.8595 16.4591 22.7115 15.8719L22.6607 15.65C22.5497 15.2478 22.4572 14.864 22.3278 14.4618C21.9625 13.1996 21.5418 11.9698 21.098 10.8186C20.9362 10.3609 20.7512 9.9217 20.5663 9.4825C20.2935 8.8213 20.0161 8.2203 19.7618 7.6516C19.6324 7.3927 19.5214 7.1569 19.4105 6.9165C19.2856 6.6437 19.1562 6.371 19.0267 6.112C18.9343 5.9132 18.8279 5.7283 18.7539 5.5434L17.9634 4.0824C17.8524 3.8836 18.0373 3.6478 18.2546 3.7079L23.2016 5.0487H23.2155C23.2247 5.0487 23.2293 5.0533 23.234 5.0533L23.8858 5.2336L24.6025 5.437L24.866 5.511V2.5706C24.866 1.1512 26.0033 0 27.4088 0C28.1116 0 28.7496 0.286599 29.2073 0.753599C29.665 1.2206 29.9517 1.8586 29.9517 2.5706V6.935L30.4787 7.0829C30.5203 7.0968 30.5619 7.1153 30.5989 7.143C30.7284 7.2401 30.9133 7.3835 31.1491 7.5591C31.334 7.7071 31.5328 7.8874 31.7733 8.0723C32.2495 8.4561 32.8181 8.9508 33.4423 9.5194C33.6087 9.6628 33.7705 9.8107 33.9185 9.9587C34.7229 10.7076 35.6245 11.5861 36.4844 12.557C36.7248 12.8297 36.9606 13.1071 37.201 13.3984C37.4415 13.6943 37.6957 13.9856 37.9177 14.2769C38.2089 14.6652 38.5233 15.0674 38.7961 15.4882C38.9255 15.687 39.0735 15.8904 39.1983 16.0892C39.5497 16.6209 39.8595 17.1711 40.1554 17.7212C40.2802 17.9755 40.4096 18.2529 40.5206 18.5257C40.8488 19.2608 41.1078 20.0098 41.2742 20.7588C41.3251 20.9206 41.362 21.0963 41.3805 21.2535V21.2904C41.436 21.5124 41.4545 21.7482 41.473 21.9886C41.547 22.756 41.51 23.5235 41.3435 24.2956C41.2742 24.6239 41.1817 24.9336 41.0708 25.2619C40.9598 25.5763 40.8488 25.9045 40.7055 26.2143C40.4281 26.8569 40.0999 27.4996 39.7115 28.1006C39.5867 28.3225 39.4387 28.5583 39.2908 28.7802C39.129 29.016 38.9625 29.238 38.8146 29.4553C38.6112 29.7327 38.3939 30.0239 38.1719 30.2828C37.9731 30.5556 37.7697 30.8284 37.5478 31.0688C37.238 31.434 36.9421 31.7808 36.6324 32.1137C36.4474 32.331 36.2486 32.5529 36.0452 32.7517C35.8464 32.9736 35.643 33.1724 35.458 33.3573C35.1483 33.6671 34.8894 33.9075 34.6721 34.1063L34.1635 34.5733C34.0895 34.638 33.9924 34.675 33.8907 34.675H29.9517V39.7283H34.9079C36.0175 39.7283 37.0716 39.3353 37.9223 38.6141C38.2135 38.3598 39.485 37.2594 40.9876 35.5997C41.0384 35.5442 41.1031 35.5026 41.1771 35.4841L54.8668 31.5265C55.1211 31.4525 55.38 31.6467 55.38 31.9149Z" fill="#F0F0F0"/>
</g>
<defs>
<clipPath id="clip0_45_2078">
<rect width="55" height="50" fill="white"/>
</clipPath>
</defs>
</svg>
